# xmcd
#
# Track frame offsets:
#	150
#	14962
#	31650
#	57605
#	79972
#	100387
#	120187
#	134325
#	149175
#	165875
#	185075
#	200947
#	216300
#	238362
#
# Disc length: 3483 seconds
#
# Revision: 1
# Processed by: cddbd v1.4PL0 Copyright (c) Steve Scherf et al.
# Submitted via: audiograbber 1.80.04
#
DISCID=de0d990e
DTITLE=The Moondog Show - Bonne Espérance
DYEAR=2002
DGENRE=
TTITLE0=On My Sheet
TTITLE1=Lie
TTITLE2=Must Be Life
TTITLE3=Cut The Wires
TTITLE4=C'est La Vie
TTITLE5=Me And Ginny By The Water
TTITLE6=Real Good Man
TTITLE7=You Don't Fit
TTITLE8=Kings Of Rhythm
TTITLE9=Jeannie Goes To Bed
TTITLE10=Black and White
TTITLE11=Across The Border
TTITLE12=Graceland Of Our Dreams
TTITLE13=So Long
EXTD=
EXTT0=
EXTT1=
EXTT2=
EXTT3=
EXTT4=
EXTT5=
EXTT6=
EXTT7=
EXTT8=
EXTT9=
EXTT10=
EXTT11=
EXTT12=
EXTT13=
PLAYORDER=
